<?xml version="1.0" encoding="UTF-8"?>
<svg id="Layer_1" data-name="Layer 1" xmlns="http://www.w3.org/2000/svg" viewBox="0 0 717.81 249.23">
  <path d="M23.06.4c6.37-1,13.11.22,18.68,3.43,50.06,33.31,106.63,61,156.03,94.81,17.11,11.71,21.35,29,7.94,45.94-55.31,35.87-112.33,69.94-169.31,103.24-16.88,5.59-34.74-6.92-36.39-24.31L.03,25.29C1.16,13.95,11.68,2.19,23.06.4ZM26.82,17.57c-4.3.49-9.12,5.54-9.58,9.94v193.02c.75,8.62,7.24,12.88,15.54,10.23,53.4-33.59,108.59-64.74,161.18-99.39,4.1-6.28,1.84-13.35-4.13-17.32L34.26,19.53c-2.15-1.08-4.99-2.24-7.43-1.96Z"/>
  <polygon points="419.61 135.61 491.92 201.43 492.66 140.1 512.52 140.1 512.52 246.31 439.84 182.73 439.84 242.57 419.61 242.57 419.61 135.61"/>
  <path d="M282.5,242.57v-102.47h39.34c3.92,0,13.78,4.37,17.1,6.86,13.54,10.17,10.58,32.73-3.23,41.38,13.56,6.97,19.28,17.68,15.83,33.02-2.81,12.51-18.24,21.21-30.46,21.21h-38.59ZM302.73,181.98h14.61c4.57,0,9.31-7.16,9.43-11.59.11-4.49-4.21-10.85-8.68-10.85h-15.36v22.44ZM302.73,223.87h16.11c1.18,0,6.58-1.85,7.83-2.65,6.25-4.01,6.64-14.17-.18-17.69-.68-.35-5.8-2.09-6.15-2.09h-17.61v22.44Z"/>
  <path d="M355.17,75.77V14.44h18.36l1.12,1.12v103.59l-71.57-62.82c-1.52-.2-.97.06-1.11,1.1-2.36,17.63,2.84,39.44.79,56.9-.13,1.09-.09,1.92-1.16,2.58h-19.11V10.7l72.68,65.07Z"/>
  <path d="M622.66,231.72c-22.52,18.08-64.61,15.62-81.54-9.11-14.22-20.77-10.35-55.11,8.85-71.68,17.95-15.5,47.47-15.75,67.38-4.36l-6.03,17.37c-1.1.69-13.42-3.73-16.2-4.2-15.78-2.67-33.89,1.97-39.49,18.54-5.57,16.51-.6,35.78,16.63,42.42,8.22,3.17,21.58,4.16,29.42-.19v-12.34h-17.23v-19.45h38.21v43.01Z"/>
  <path d="M715.57,140.1v19.45h-49.45v21.69h43.46c2.01,6.37-.24,12.97,0,19.45h-43.46v22.44h51.7v18.33l-1.12,1.12h-70.8v-102.47h69.68Z"/>
  <path d="M471.31,14.44v17.58l-1.12,1.12h-47.95l-1.12,1.12v20.94l1.12,1.12h43.08v17.58l-1.12,1.12h-43.08v22.44h52.45v19.45h-71.93V16.31c0-.13,1.74-1.87,1.87-1.87h67.81Z"/>
  <path d="M576.95,14.44l-31.3,51.11,32.05,51.36h-23.6l-23.26-35.18-1.9.51-17.3,31.18-3.25,3.49h-22.1l32.28-52.72-30.78-49.75h22.85c.5,0,2.08,1.4,2.51,1.98l20.73,31.68c1.08.27,1.97-1.26,2.48-1.99,6.68-9.53,10.97-22.61,18.48-31.67h22.1Z"/>
  <path d="M234.05,2.72c6.09-6.36,15.75-.64,15.51,7.57l-.54,232.14c-2.75,8.79-13.3,9.1-16.89.68l-.07-236.77c.56-1.18,1.1-2.68,1.99-3.62Z"/>
  <polygon points="657.87 33.14 633.15 33.14 633.15 116.91 613.67 116.91 613.67 34.26 612.54 33.14 589.69 33.14 589.69 15.56 590.81 14.44 656.75 14.44 657.87 15.56 657.87 33.14"/>
  <path d="M392.64,242.57h-19.48c.24-.73-.75-1.62-.75-1.87v-99.48l1.12-1.12h18.73l.37,102.47Z"/>
</svg>