<?xml version="1.0" encoding="UTF-8"?>
<svg id="Layer_1" data-name="Layer 1" xmlns="http://www.w3.org/2000/svg" viewBox="0 0 753.75 276.75">
  <defs>
    <style>
      .cls-1 {
        fill: #f5d112;
      }

      .cls-2 {
        fill: #13303b;
      }

      .cls-3 {
        fill: none;
      }

      .cls-4 {
        fill: #132f3a;
      }

      .cls-5 {
        fill: #f5d113;
      }

      .cls-6 {
        fill: #82ceea;
      }

      .cls-7 {
        fill: #122f3a;
      }

      .cls-8 {
        fill: #14303b;
      }

      .cls-9 {
        fill: #112e39;
      }

      .cls-10 {
        fill: #81ceea;
      }
    </style>
  </defs>
  <path class="cls-1" d="M41.78,12.91c5.72-.78,11.09-.12,16.44,1.9l163.96,100.35c12.89,11.39,13.3,29.75,1.87,42.3-53.74,35.29-109.9,67.26-164.62,101.19-17.75,9.12-38.81-3.22-40.73-22.65l.04-198.98c1.14-11.17,11.89-22.61,23.04-24.12ZM45.5,30.09c-4.22.38-9.14,5.6-9.55,9.91v193.02c.72,8.33,6.83,12.52,14.96,10.4l160.68-98.39c5.22-6.27,3.31-15.39-4.11-18.93L52.96,32.03c-1.96-1.04-5.31-2.13-7.46-1.94Z"/>
  <polygon class="cls-8" points="510.99 213.92 510.99 152.59 531.22 152.59 531.22 258.8 458.54 194.47 458.54 255.06 438.31 255.06 438.31 148.85 510.99 213.92"/>
  <path class="cls-10" d="M301.2,23.19l72.31,65.07-.38-61.33h20.23v106.21l-70.82-63.57c-2.97-1.28-1.1,7.69-1.08,8.56.44,17.06-.39,34.21-.03,51.27h-20.23V23.19Z"/>
  <path class="cls-4" d="M301.2,255.06v-102.47h38.59c2.91,0,12.81,3.7,15.6,5.37,15.86,9.51,13.64,33.29-.97,42.87,14.18,7.47,20.62,20.65,14.59,36.27-4.39,11.35-19.27,17.96-30.71,17.96h-37.09ZM321.43,194.47h15.36c.2,0,3.17-1.32,3.64-1.61,5.15-3.21,6.87-12.31,3.07-17.06-.82-1.03-4.96-3.77-5.96-3.77h-16.11v22.44ZM321.43,236.36h16.86c.33,0,3.95-1.08,4.65-1.34,9.12-3.35,10.5-14.68,1.76-19.28-.7-.37-4.51-1.82-4.92-1.82h-18.36v22.44Z"/>
  <path class="cls-2" d="M641.36,243.47c-.88,4.15-14.55,8.78-18.57,9.89-37.34,10.3-73.9-10.62-71.37-51.8,2.8-45.71,46.62-61.03,84.69-42.95l-6.06,17.85c-.93.66-9.19-2.67-11.3-3.16-27.58-6.43-49,5.44-46.35,35.8.96,11.05,9.15,20.95,19.52,24.64,8.3,2.95,20.82,3.73,28.46-.73v-12.34h-17.23v-19.45h37.09l1.12,1.12v41.14Z"/>
  <polygon class="cls-10" points="490.01 26.93 490.01 45.25 488.89 46.37 440.56 46.37 440.56 68.07 483.64 68.07 484.77 69.19 484.77 86.39 483.64 87.51 440.56 87.51 440.56 109.95 492.26 109.95 492.26 129.4 420.33 129.4 420.33 28.05 421.46 26.93 490.01 26.93"/>
  <path class="cls-7" d="M734.27,152.59v19.45h-50.2v19.82c0,.25.99,1.14.75,1.87h43.46v19.45h-43.08l-1.12,1.12v20.2l1.12,1.12h51.32v18.33l-1.12,1.12h-70.8v-102.47h69.68Z"/>
  <path class="cls-6" d="M595.66,26.93l-30.72,51.19,32.22,51.29h-25.47l-22.85-35.14-19.85,35.14h-24.73l32.94-52.73-30.69-49.74h24.35l21.74,32.91c1.08.27,1.97-1.26,2.48-1.99,6.46-9.22,10.81-21.73,17.73-30.92h22.85Z"/>
  <path class="cls-5" d="M256.79,12.89c7.17-1.46,11.25,3.06,11.47,9.9l-.54,232.13c-3.35,10.45-16.94,8.27-17.5-2.45l.53-233.64c1.01-2.8,2.96-5.31,6.04-5.94Z"/>
  <polygon class="cls-6" points="651.85 46.37 651.85 129.4 632.75 129.4 631.62 128.28 631.62 46.37 608.77 46.37 607.65 45.25 607.65 26.93 676.2 26.93 677.33 28.05 677.33 45.25 676.2 46.37 651.85 46.37"/>
  <rect class="cls-9" x="391.86" y="152.59" width="19.48" height="102.47"/>
  <rect class="cls-3" width="753.75" height="276.75"/>
</svg>