<?xml version="1.0" encoding="UTF-8"?>
<svg id="Layer_1" data-name="Layer 1" xmlns="http://www.w3.org/2000/svg" viewBox="0 0 249.55 249.14">
  <defs>
    <style>
      .cls-1 {
        fill: #f5d112;
      }

      .cls-2 {
        fill: #f5d113;
      }
    </style>
  </defs>
  <path class="cls-1" d="M23.07.32c5.72-.78,11.09-.12,16.44,1.9l163.96,100.35c12.89,11.39,13.3,29.75,1.87,42.3-53.74,35.29-109.9,67.26-164.62,101.19-17.75,9.12-38.81-3.22-40.73-22.65L.04,24.44C1.17,13.28,11.92,1.83,23.07.32ZM26.8,17.5c-4.22.38-9.14,5.6-9.55,9.91v193.02c.72,8.33,6.83,12.52,14.96,10.4l160.68-98.39c5.22-6.27,3.31-15.39-4.11-18.93L34.26,19.43c-1.96-1.04-5.31-2.13-7.46-1.94Z"/>
  <path class="cls-2" d="M238.09.3c7.17-1.46,11.25,3.06,11.47,9.9l-.54,232.13c-3.35,10.45-16.94,8.27-17.5-2.45l.53-233.64c1.01-2.8,2.96-5.31,6.04-5.94Z"/>
</svg>