<?xml version="1.0" encoding="UTF-8"?>
<svg id="Layer_1" data-name="Layer 1" xmlns="http://www.w3.org/2000/svg" viewBox="0 0 542 542">
  <defs>
    <style>
      .cls-1 {
        fill: #f5d112;
      }

      .cls-2 {
        fill: #f5d113;
      }

      .cls-3 {
        fill: #112e39;
      }
    </style>
  </defs>
  <circle class="cls-3" cx="271" cy="271" r="271"/>
  <path class="cls-1" d="M162.93,146.8c5.72-.78,11.09-.12,16.44,1.9l163.96,100.35c12.89,11.39,13.3,29.75,1.87,42.3-53.74,35.29-109.9,67.26-164.62,101.19-17.75,9.12-38.81-3.22-40.73-22.65l.04-198.98c1.14-11.17,11.89-22.61,23.04-24.12ZM166.66,163.98c-4.22.38-9.14,5.6-9.55,9.91v193.02c.72,8.33,6.83,12.52,14.96,10.4l160.68-98.39c5.22-6.27,3.31-15.39-4.11-18.93l-154.52-94.07c-1.96-1.04-5.31-2.13-7.46-1.94Z"/>
  <path class="cls-2" d="M377.95,146.79c7.17-1.46,11.25,3.06,11.47,9.9l-.54,232.13c-3.35,10.45-16.94,8.27-17.5-2.45l.53-233.64c1.01-2.8,2.96-5.31,6.04-5.94Z"/>
</svg>